HIERARCHY
ROOT Hips
{
	OFFSET 0.000000 0.000000 0.000000
	CHANNELS 6 Xposition Yposition Zposition Zrotation Yrotation Xrotation 
	JOINT LHipJoint
	{
		OFFSET 0.000000 0.000000 0.000000
		CHANNELS 3 Zrotation Yrotation Xrotation
		JOINT LeftUpLeg
		{
			OFFSET 1.363060 -1.794630 0.839290
			CHANNELS 3 Zrotation Yrotation Xrotation
			JOINT LeftLeg
			{
				OFFSET 2.448110 -6.726130 0.000000
				CHANNELS 3 Zrotation Yrotation Xrotation
				JOINT LeftFoot
				{
					OFFSET 2.562200 -7.039590 0.000000
					CHANNELS 3 Zrotation Yrotation Xrotation
					JOINT LeftToeBase
					{
						OFFSET 0.157640 -0.433110 2.322550
						CHANNELS 3 Zrotation Yrotation Xrotation
						End Site
						{
							OFFSET 0.000000 0.000000 0.000000
						}
					}
				}
			}
		}
	}
	JOINT RHipJoint
	{
		OFFSET 0.000000 0.000000 0.000000
		CHANNELS 3 Zrotation Yrotation Xrotation
		JOINT RightUpLeg
		{
			OFFSET -1.305520 -1.794630 0.839290
			CHANNELS 3 Zrotation Yrotation Xrotation
			JOINT RightLeg
			{
				OFFSET -2.542530 -6.985550 0.000000
				CHANNELS 3 Zrotation Yrotation Xrotation
				JOINT RightFoot
				{
					OFFSET -2.568260 -7.056230 0.000000
					CHANNELS 3 Zrotation Yrotation Xrotation
					JOINT RightToeBase
					{
						OFFSET -0.164730 -0.452590 2.363150
						CHANNELS 3 Zrotation Yrotation Xrotation
						End Site
						{
							OFFSET 0.000000 0.000000 0.000000
						}
					}
				}
			}
		}
	}
}
MOTION
Frames: 25
Frame Time: 0.008333
1.523729 17.544235 0.583127 27.606121 86.236287 50.345993 -10.622144 -0.061434 -0.671887 -11.374088 2.833316 -42.179803 -0.768206 2.279624 43.796598 2.592424 14.887505 -2.140041 1.798000 -0.000000 -37.768099 8.496600 -1.019232 0.820792 8.273688 2.251030 -19.506665 2.633431 0.642575 9.135230 -0.646063 -2.085261 -4.495096 -0.476299 0.000000 -39.944200
1.716823 17.556019 0.601191 24.672647 85.911419 47.321679 -10.413528 -0.113470 -0.578483 -11.636122 2.791169 -42.651657 -0.968936 2.095119 40.888190 2.559745 14.560503 -1.999229 1.851100 0.000000 -37.522799 8.617634 -1.045905 0.712897 8.134444 1.982752 -18.068945 2.649489 0.716186 7.986451 -0.530267 -1.629894 -3.972731 -0.458300 0.000000 -40.737901
1.910660 17.560589 0.617793 22.075112 85.613351 44.632361 -10.224387 -0.173344 -0.471005 -11.820712 2.752686 -43.057465 -1.168450 1.890666 37.841536 2.521580 14.230825 -1.751775 1.929700 0.000000 -37.303500 8.722243 -1.079832 0.604580 8.018487 1.742298 -16.655640 2.664754 0.779443 6.931575 -0.424043 -1.189472 -3.508948 -0.432301 0.000000 -41.577200
2.105338 17.557936 0.632697 19.651782 85.339040 42.115219 -10.055428 -0.240725 -0.348950 -11.924586 2.713183 -43.395068 -1.366952 1.665640 34.668455 2.476645 13.892175 -1.435728 2.021400 0.000001 -37.136400 8.809225 -1.118049 0.493499 7.929852 1.530361 -15.256521 2.679411 0.835258 5.960056 -0.329269 -0.776918 -3.112347 -0.401000 0.000001 -42.435300
2.300925 17.548164 0.645668 17.292210 85.084974 39.658063 -9.906997 -0.316327 -0.211848 -11.943364 2.669099 -43.663881 -1.563853 1.419040 31.384111 2.423130 13.533287 -1.089476 2.112900 0.000000 -37.045600 8.877632 -1.158237 0.377207 7.873446 1.343725 -13.860631 2.693973 0.886483 5.059392 -0.247207 -0.403290 -2.790040 -0.367300 -0.000000 -43.286900
2.497599 17.531355 0.656498 14.913073 84.847151 37.176471 -9.778861 -0.401455 -0.059844 -11.873340 2.620392 -43.868143 -1.757643 1.150375 28.009437 2.358530 13.137715 -0.746919 2.191300 0.000000 -37.043400 8.926994 -1.198384 0.253601 7.854232 1.176011 -12.458958 2.709322 0.936034 4.215293 -0.178298 -0.075855 -2.547605 -0.333899 -0.000000 -44.107600
2.695545 17.507710 0.665102 12.462396 84.620871 34.617004 -9.670003 -0.497062 0.106413 -11.714551 2.572045 -44.016663 -1.945802 0.860109 24.569254 2.279957 12.687569 -0.429288 2.246500 0.000000 -37.155600 8.957955 -1.237117 0.121531 7.875682 1.017345 -11.045372 2.726438 0.986364 3.415681 -0.121975 0.203844 -2.387953 -0.302400 0.000001 -44.877800
2.894975 17.477410 0.671420 9.896368 84.401108 31.934985 -9.578469 -0.603552 0.284033 -11.473608 2.539026 -44.127011 -2.125936 0.550992 21.098539 2.183572 12.159017 -0.151122 2.269100 -0.000000 -37.364000 8.972216 -1.273620 -0.019126 7.940092 0.855962 -9.617541 2.746437 1.039443 2.649847 -0.076603 0.440385 -2.308143 -0.273900 -0.000000 -45.609200
3.096086 17.440666 0.675606 7.190186 84.182553 29.104624 -9.501416 -0.719825 0.467478 -11.169016 2.549394 -44.225240 -2.296836 0.228518 17.642106 2.064320 11.522427 0.087106 2.252000 -0.000000 -37.666600 8.972940 -1.308063 -0.166508 8.047165 0.679366 -8.178064 2.770401 1.096380 1.912783 -0.039543 0.645709 -2.302467 -0.247800 0.000000 -46.312100
3.299147 17.397891 0.677933 4.392015 83.961265 26.173271 -9.434794 -0.842999 0.651891 -10.832332 2.626917 -44.335068 -2.458066 -0.101743 14.235112 1.918762 10.761395 0.308702 2.196600 -0.000000 -38.122500 8.966010 -1.341509 -0.317784 8.186896 0.469452 -6.738497 2.798907 1.156428 1.210130 -0.006786 0.843164 -2.363809 -0.222100 0.000000 -46.994000
3.504276 17.349317 0.678600 1.474840 83.733209 23.110560 -9.374654 -0.969578 0.822216 -10.516822 2.837199 -44.508714 -2.617255 -0.427069 10.963799 1.737189 9.812789 0.510607 2.089400 0.000000 -38.665500 8.955705 -1.376641 -0.467998 8.356431 0.216249 -5.307281 2.833032 1.218619 0.547623 0.025805 1.054975 -2.474603 -0.195100 -0.000001 -47.720700
3.711679 17.295631 0.678164 -1.384436 83.499078 20.094274 -9.316156 -1.095550 0.975886 -10.272187 3.180070 -44.759016 -2.777132 -0.743836 7.846294 1.521650 8.690344 0.736349 1.941799 0.000000 -39.403400 8.950166 -1.415567 -0.615097 8.527037 -0.103124 -3.908988 2.872013 1.278547 -0.050221 0.063685 1.318759 -2.624971 -0.163199 -0.000000 -48.507100
3.921334 17.237133 0.676674 -4.225977 83.257779 17.077350 -9.254897 -1.216113 1.090883 -10.187646 3.746354 -45.168924 -2.957374 -1.034304 5.024769 1.258788 7.288777 0.951813 1.727399 -0.000000 -40.258800 8.951527 -1.463165 -0.751843 8.694812 -0.490538 -2.553989 2.916719 1.333603 -0.566739 0.110724 1.656377 -2.791700 -0.125500 0.000000 -49.444100
4.133302 17.174708 0.674685 -6.819300 83.015869 14.295139 -9.186864 -1.328675 1.173369 -10.296160 4.479989 -45.735369 -3.158292 -1.299539 2.505401 0.961875 5.670221 1.178742 1.463399 0.000000 -41.315600 8.964879 -1.520395 -0.879963 8.821332 -0.962114 -1.270036 2.964952 1.377601 -0.968629 0.170892 2.099809 -2.965611 -0.080200 0.000000 -50.541001
4.347521 17.109174 0.672488 -9.039289 82.780626 11.882280 -9.110771 -1.432296 1.237605 -10.577208 5.287440 -46.435982 -3.370118 -1.542541 0.279928 0.653396 3.947419 1.416535 1.172400 -0.000000 -42.572200 8.991268 -1.586389 -1.003419 8.879141 -1.518892 -0.078974 3.014586 1.405497 -1.229729 0.245760 2.664276 -3.133443 -0.027400 0.000000 -51.839400
4.563918 17.041118 0.669969 -10.953466 82.555159 9.776607 -9.024707 -1.524486 1.285200 -11.023872 6.142210 -47.300122 -3.593490 -1.755317 -1.564579 0.343119 2.145227 1.600067 0.855300 0.000001 -43.940300 9.027717 -1.661647 -1.119913 8.869413 -2.134433 1.011892 3.064351 1.415174 -1.335608 0.332751 3.335621 -3.284976 0.029600 0.000000 -53.316400
4.782402 16.971292 0.667142 -12.581959 82.343495 7.968739 -8.930601 -1.605618 1.333738 -11.551258 6.940527 -48.284930 -3.811105 -1.939560 -3.034162 0.055315 0.402289 1.691944 0.541900 -0.000000 -45.346100 9.071886 -1.743559 -1.232904 8.790204 -2.781286 1.998306 3.111859 1.404407 -1.277889 0.427842 4.090686 -3.413625 0.087600 0.000000 -54.935301
5.002984 16.900454 0.664011 -13.968786 82.146446 6.424433 -8.834527 -1.678380 1.402668 -12.030223 7.572578 -49.308554 -3.998705 -2.099102 -4.172390 -0.184620 -1.110035 1.665634 0.270500 0.000000 -46.692500 9.121057 -1.828281 -1.347467 8.647040 -3.426284 2.887423 3.154480 1.372086 -1.058874 0.525690 4.894125 -3.514350 0.143801 -0.000000 -56.638101
5.225665 16.829224 0.660481 -15.215484 81.961156 5.041957 -8.741579 -1.744233 1.493855 -12.381150 8.016146 -50.332289 -4.148241 -2.228742 -4.955549 -0.369969 -2.335397 1.476461 0.056500 -0.000000 -47.877300 9.171729 -1.914177 -1.463425 8.458702 -4.030232 3.699760 3.190091 1.319052 -0.693827 0.620361 5.699634 -3.580964 0.195500 -0.000000 -58.363600
5.450581 16.758251 0.656551 -16.348236 81.784217 3.794763 -8.660157 -1.806987 1.615076 -12.491090 8.221047 -51.266483 -4.241786 -2.329809 -5.433819 -0.488046 -3.165810 1.127520 -0.077800 0.000000 -48.822400 9.221579 -1.997733 -1.584241 8.234840 -4.563893 4.458518 3.216019 1.246237 -0.203846 0.707315 6.466474 -3.607267 0.242200 -0.000000 -60.074900
5.678001 16.688148 0.652169 -17.398702 81.611778 2.647630 -8.595981 -1.868400 1.764643 -12.298440 8.186396 -52.061115 -4.272302 -2.399045 -5.620047 -0.536724 -3.574630 0.628855 -0.131100 0.000001 -49.473800 9.268055 -2.077061 -1.709119 7.988975 -4.998897 5.189355 3.230010 1.155906 0.382373 0.782728 7.153301 -3.586076 0.284200 0.000000 -61.744000
5.908300 16.619339 0.647162 -18.408371 81.441668 1.552281 -8.549799 -1.926360 1.930685 -11.818429 7.961600 -52.728656 -4.248278 -2.427022 -5.466872 -0.526539 -3.637397 -0.010499 -0.123400 -0.000000 -49.812400 9.308793 -2.152761 -1.832833 7.737426 -5.314620 5.914061 3.230919 1.051162 1.032957 0.844452 7.727630 -3.507021 0.323400 0.000000 -63.381900
6.141973 16.552305 0.641481 -19.343518 81.273850 0.547072 -8.526116 -1.981196 2.120946 -10.998247 7.509632 -53.215393 -4.156271 -2.417226 -5.044866 -0.449831 -3.299347 -0.715046 -0.058399 -0.000000 -49.842000 9.342712 -2.222396 -1.954819 7.484885 -5.499308 6.641898 3.217423 0.934579 1.719209 0.891712 8.168982 -3.360963 0.362101 0.000000 -65.018700
6.379592 16.487431 0.634962 -20.168777 81.111811 -0.326144 -8.526131 -2.030026 2.341118 -9.828118 6.806494 -53.506009 -3.989290 -2.371855 -4.402065 -0.303501 -2.543939 -1.402284 0.053401 -0.000000 -49.594800 9.369534 -2.285036 -2.072542 7.234311 -5.551216 7.370941 3.189205 0.808478 2.418493 0.925223 8.471665 -3.136226 0.403100 -0.000000 -66.703400
6.621781 16.424980 0.627450 -20.873852 80.960456 -1.052232 -8.545751 -2.065693 2.585881 -8.386365 5.882878 -53.663760 -3.759263 -2.286424 -3.511245 -0.099353 -1.457172 -2.005098 0.192800 -0.000000 -49.135300 9.388980 -2.343230 -2.177464 6.991984 -5.470869 8.090093 3.146756 0.675075 3.115402 0.946182 8.637829 -2.818985 0.448600 -0.000001 -68.491101
